<svg xmlns="http://www.w3.org/2000/svg" xmlns:xlink="http://www.w3.org/1999/xlink" width="122" height="33" viewBox="0 0 122 33"><defs><path id="ajdga" d="M60.714 60.327h29.613V30.683H60.714zM91 61H60V30h30.969v31z"/><path id="ajdgb" d="M90.661 60.327h28.678V30.683H90.66zM120 61H90V30h30z"/><path id="ajdgc" d="M120.661 60.327h28.678V30.683H120.66zM150 61h-30V30h30z"/><path id="ajdgd" d="M150.661 60.327h28.678V30.683H150.66zM180 61h-30V30h30z"/><path id="ajdge" d="M74 41h3v9h-3z"/><path id="ajdgf" d="M103.718 43.197H101V41h8v2.197h-2.718V50h-2.533v-6.803z"/><path id="ajdgg" d="M131 41h7v2.112h-4.705v1.378H138v1.959h-4.705v1.439H138V50h-7z"/><path id="ajdgh" d="M165.97 46.475l-1-2.536-1 2.536zM163.818 41h2.394L170 50h-2.667l-.636-1.606h-3.455L162.606 50H160z"/></defs><g><g transform="translate(-59 -29)"><g><use fill="#272e32" xlink:href="#ajdga"/><use fill="#fff" fill-opacity="0" stroke="#272e32" stroke-miterlimit="50" stroke-width=".5" xlink:href="#ajdga"/></g><g><use fill="#272e32" xlink:href="#ajdgb"/><use fill="#fff" fill-opacity="0" stroke="#272e32" stroke-miterlimit="50" stroke-width=".5" xlink:href="#ajdgb"/></g><g><use fill="#272e32" xlink:href="#ajdgc"/><use fill="#fff" fill-opacity="0" stroke="#272e32" stroke-miterlimit="50" stroke-width=".5" xlink:href="#ajdgc"/></g><g><use fill="#272e32" xlink:href="#ajdgd"/><use fill="#fff" fill-opacity="0" stroke="#272e32" stroke-miterlimit="50" stroke-width=".5" xlink:href="#ajdgd"/></g><g><use fill="#272e32" xlink:href="#ajdge"/></g><g><use fill="#272e32" xlink:href="#ajdgf"/></g><g><use fill="#272e32" xlink:href="#ajdgg"/></g><g><use fill="#272e32" xlink:href="#ajdgh"/></g></g></g></svg>